<?xml version="1.0" encoding="UTF-8" standalone="no"?>
<svg
   xmlns:dc="http://purl.org/dc/elements/1.1/"
   xmlns:cc="http://creativecommons.org/ns#"
   xmlns:rdf="http://www.w3.org/1999/02/22-rdf-syntax-ns#"
   xmlns:svg="http://www.w3.org/2000/svg"
   xmlns="http://www.w3.org/2000/svg"
   xmlns:sodipodi="http://sodipodi.sourceforge.net/DTD/sodipodi-0.dtd"
   xmlns:inkscape="http://www.inkscape.org/namespaces/inkscape"
   sodipodi:docname="solar.svg"
   inkscape:version="1.0 (4035a4f, 2020-05-01)"
   id="svg8"
   version="1.1"
   viewBox="0 0 338.66666 105.83333"
   height="400"
   width="1280">
  <defs
     id="defs2">
	

		
	
	
	
	
</defs>
  <sodipodi:namedview
     inkscape:window-maximized="0"
     inkscape:window-y="23"
     inkscape:window-x="0"
     inkscape:window-height="855"
     inkscape:window-width="1440"
     units="px"
     showgrid="false"
     inkscape:document-rotation="0"
     inkscape:current-layer="layer1"
     inkscape:document-units="mm"
     inkscape:cy="86.085137"
     inkscape:cx="584.27468"
     inkscape:zoom="0.59891417"
     inkscape:pageshadow="2"
     inkscape:pageopacity="0.0"
     borderopacity="1.0"
     bordercolor="#666666"
     pagecolor="#ffffff"
     id="base" />
  <metadata
     id="metadata5">
    <rdf:RDF>
      <cc:Work
         rdf:about="">
        <dc:format>image/svg+xml</dc:format>
        <dc:type
           rdf:resource="http://purl.org/dc/dcmitype/StillImage" />
        <dc:title></dc:title>
      </cc:Work>
    </rdf:RDF>
  </metadata>
  <g
     id="layer1"
     inkscape:groupmode="layer"
     inkscape:label="Layer 1">
    <g
       style="stroke-width:1.11397;stroke-miterlimit:4;stroke-dasharray:none"
       transform="matrix(0.60400531,0,0,0.60400531,3.1622802,64.029776)"
       id="g1615">
      <g
         style="stroke-width:1.11397;stroke-miterlimit:4;stroke-dasharray:none"
         id="Battery-charged">
	<path
   d="m 3.4511719,13.177734 c -2.48044443,0.169606 -4.4890843,2.541998 -4.29296877,5.012891 0.0144231,9.462316 -0.028781,18.926092 0.0214844,28.3875 0.18620174,2.462286 2.54027497,4.450611 4.99531247,4.263672 17.109784,-0.0099 34.220537,0.0197 51.329715,-0.01476 2.513149,-0.118764 4.574584,-2.517602 4.376144,-5.015708 0,-2.100521 0,-4.201042 0,-6.301562 2.555924,0.179805 4.952762,-2.028695 4.956167,-4.594559 -0.02874,-2.136371 0.08152,-4.283049 -0.05464,-6.413709 -0.302226,-2.331559 -2.557673,-4.166735 -4.901531,-4.00931 -0.03104,-2.407686 0.06128,-4.822128 -0.04435,-7.225814 -0.257876,-2.438603 -2.643958,-4.330518 -5.072445,-4.108171 -17.077081,0.01026 -34.155213,-0.0205 -51.231638,0.01536 z m 51.6699221,3.664063 c 0.832189,-0.04894 1.229693,0.870494 1.076172,1.582031 0.02434,2.760386 -0.04812,5.525991 0.03516,8.283203 0.20059,1.101127 1.379514,1.629893 2.40664,1.46875 0.811814,0.08339 2.02229,-0.322546 2.43711,0.644531 0.190185,1.361262 0.02831,2.768508 0.08203,4.147266 -0.122541,0.856254 0.312615,1.939856 -0.378906,2.61836 -0.754971,0.482574 -1.72808,0.134672 -2.573828,0.240234 -1.219411,-0.13203 -2.206209,1.06752 -2.008203,2.241797 -0.02947,2.779347 0.05842,5.569316 -0.04297,8.342187 -0.289212,0.985468 -1.461251,0.726528 -2.233203,0.748047 -16.720379,-0.0052 -33.441267,0.01042 -50.1613284,-0.0078 C 2.8866106,47.066232 2.7387279,46.068277 2.8417969,45.366406 2.8561429,36.140537 2.81312,26.911212 2.8632812,17.6875 c 0.1469312,-0.880078 1.1560362,-0.919065 1.8566407,-0.845703 16.8003911,0 33.6007811,0 50.4011721,0 z"
   style="stroke-width:1.11397;stroke-miterlimit:4;stroke-dasharray:none;fill:#73bf69;fill-opacity:1"
   id="path1555" />

	<path
   d="m 29.916016,23.162109 c -1.182828,0.01062 -1.946917,1.237276 -1.759766,2.337891 0,1.553385 0,3.106771 0,4.660156 -1.867769,0.03947 -3.750451,-0.07798 -5.609375,0.05664 -1.466228,0.29254 -1.889701,2.443391 -0.638672,3.265625 0.999532,0.658478 2.26961,0.245664 3.391797,0.361328 0.952083,0 1.904167,0 2.85625,0 0.04068,1.867791 -0.08045,3.75044 0.05859,5.609375 0.292543,1.466323 2.443347,1.889658 3.265625,0.638672 0.647087,-0.967794 0.248979,-2.202011 0.359375,-3.291797 0,-0.985417 0,-1.970833 0,-2.95625 1.869099,-0.0406 3.753034,0.08034 5.613281,-0.05859 1.466323,-0.292543 1.889658,-2.443347 0.638672,-3.265625 -0.96779,-0.64709 -2.202007,-0.248982 -3.291793,-0.359378 -0.986719,0 -1.973437,0 -2.960156,0 -0.0394,-1.869078 0.07788,-3.753045 -0.05664,-5.613281 -0.197181,-0.828298 -1.015996,-1.441934 -1.867188,-1.384766 z"
   style="stroke-width:1.11397;stroke-miterlimit:4;stroke-dasharray:none;fill:#73bf69;fill-opacity:1"
   id="path1557" />

</g>
      <g
         style="stroke-width:1.11397;stroke-miterlimit:4;stroke-dasharray:none"
         id="g1560">
</g>
      <g
         style="stroke-width:1.11397;stroke-miterlimit:4;stroke-dasharray:none"
         id="g1562">
</g>
      <g
         style="stroke-width:1.11397;stroke-miterlimit:4;stroke-dasharray:none"
         id="g1564">
</g>
      <g
         style="stroke-width:1.11397;stroke-miterlimit:4;stroke-dasharray:none"
         id="g1566">
</g>
      <g
         style="stroke-width:1.11397;stroke-miterlimit:4;stroke-dasharray:none"
         id="g1568">
</g>
      <g
         style="stroke-width:1.11397;stroke-miterlimit:4;stroke-dasharray:none"
         id="g1570">
</g>
      <g
         style="stroke-width:1.11397;stroke-miterlimit:4;stroke-dasharray:none"
         id="g1572">
</g>
      <g
         style="stroke-width:1.11397;stroke-miterlimit:4;stroke-dasharray:none"
         id="g1574">
</g>
      <g
         style="stroke-width:1.11397;stroke-miterlimit:4;stroke-dasharray:none"
         id="g1576">
</g>
      <g
         style="stroke-width:1.11397;stroke-miterlimit:4;stroke-dasharray:none"
         id="g1578">
</g>
      <g
         style="stroke-width:1.11397;stroke-miterlimit:4;stroke-dasharray:none"
         id="g1580">
</g>
      <g
         style="stroke-width:1.11397;stroke-miterlimit:4;stroke-dasharray:none"
         id="g1582">
</g>
      <g
         style="stroke-width:1.11397;stroke-miterlimit:4;stroke-dasharray:none"
         id="g1584">
</g>
      <g
         style="stroke-width:1.11397;stroke-miterlimit:4;stroke-dasharray:none"
         id="g1586">
</g>
      <g
         style="stroke-width:1.11397;stroke-miterlimit:4;stroke-dasharray:none"
         id="g1588">
</g>
    </g>
    <path
       style="stroke-width:0.133143;fill:#f44d5c;fill-opacity:1"
       d="m 334.90009,83.077215 c 9.9e-4,-2.66e-4 0.002,0 0.003,0 0.58819,0 1.06485,-0.477048 1.06485,-1.065433 0,-0.299654 -0.12366,-0.570541 -0.32265,-0.76405 l -8.12765,-8.926206 c 1.09691,-0.277278 1.97913,-1.100326 2.33878,-2.162564 h 2.83687 c 1.83485,0 3.32762,-1.493604 3.32762,-3.329481 0,-1.835876 -1.49277,-3.329481 -3.32762,-3.329481 h -5.4573 c -1.46256,0 -2.70789,0.949169 -3.153,2.264048 h -2.83673 c -1.83485,0 -3.32761,1.493605 -3.32761,3.329481 0,0.422443 0.08,0.826377 0.22401,1.198612 h -10.79483 c -0.009,0 -0.0174,0.0012 -0.0261,0.0013 -0.0213,5.33e-4 -0.0425,0.0016 -0.0636,0.0033 -0.0142,0.0012 -0.0286,0.0028 -0.0428,0.0045 -0.0215,0.0028 -0.0429,0.0063 -0.0643,0.01012 -0.0133,0.0026 -0.0264,0.0053 -0.0396,0.0081 -0.0222,0.0051 -0.0442,0.01105 -0.066,0.01744 -0.012,0.0037 -0.0239,0.007 -0.0357,0.01105 -0.0222,0.0074 -0.0442,0.01597 -0.0661,0.02503 -0.0112,0.0046 -0.0222,0.0089 -0.0333,0.01385 -0.0211,0.0095 -0.042,0.02024 -0.0627,0.0313 -0.0113,0.0061 -0.0226,0.01185 -0.0338,0.01824 -0.0187,0.01092 -0.037,0.02304 -0.0554,0.03516 -0.0124,0.0082 -0.0247,0.01625 -0.0367,0.02503 -0.0159,0.01146 -0.031,0.0241 -0.0465,0.03649 -0.0135,0.01092 -0.0268,0.02171 -0.0396,0.03316 -0.004,0.0035 -0.008,0.0063 -0.0117,0.0098 -0.0105,0.0097 -0.0195,0.02024 -0.0297,0.0305 -0.009,0.009 -0.0188,0.01718 -0.0274,0.02664 l -9.87185,10.654339 c -0.28778,0.310574 -0.36432,0.762451 -0.195,1.150536 0.1693,0.388217 0.55251,0.63926 0.97592,0.63926 h 1.09812 v 13.626898 c -1.33119,0.445352 -2.24069,1.690317 -2.24069,3.15356 0,1.835866 1.51487,3.329476 3.34985,3.329476 h 32.87689 c 1.83486,0 3.3054,-1.49361 3.3054,-3.329476 0,-1.362428 -0.82085,-2.535874 -2.01879,-3.050611 V 83.077215 Z m -2.34039,17.979195 h -32.8769 c -0.66059,0 -1.19794,-0.53764 -1.19794,-1.198606 0,-0.66098 0.53735,-1.19861 1.19794,-1.19861 h 32.8769 c 0.66061,0 1.19795,0.53763 1.19795,1.19861 0,0.660966 -0.53748,1.198606 -1.19795,1.198606 z M 321.24579,67.894783 h 0.53243 3.19451 c 0.58806,0 1.06483,-0.477049 1.06483,-1.065435 0,-0.660968 0.53735,-1.198613 1.19795,-1.198613 h 5.45731 c 0.6606,0 1.19793,0.537645 1.19793,1.198613 0,0.660968 -0.53733,1.198613 -1.19793,1.198613 h -3.72694 c -0.58807,0 -1.06484,0.477048 -1.06484,1.065435 0,0.660967 -0.53736,1.198613 -1.19795,1.198613 h -1.50408 -3.95322 c -0.66059,0 -1.19794,-0.537646 -1.19794,-1.198613 0,-0.66097 0.53735,-1.198613 1.19794,-1.198613 z M 308.2903,96.528318 h -1.99658 v -5.460349 h 1.99658 z m 19.03386,0 H 320.2696 V 87.47213 h 7.05456 z M 314.77982,80.946347 h -14.86514 l 7.4327,-8.021652 z m 8.01878,-8.523471 h 1.92988 0.3329 v 2.397226 h -2.26278 z m -2.12968,0 v 3.462661 c 0,0.588386 0.5211,1.065433 1.10916,1.065433 h 4.39245 c 0.58807,0 1.02052,-0.477047 1.02052,-1.065433 V 75.17609 l 5.29837,5.770257 h -14.80538 l -7.89738,-8.523471 z m -19.96574,10.654339 h 13.17739 v 13.451103 h -3.46073 v -6.525782 c 0,-0.588386 -0.43245,-1.065435 -1.02052,-1.065435 h -4.12625 c -0.58805,0 -1.10915,0.477049 -1.10915,1.065435 v 6.525782 h -3.46074 z m 31.01344,13.451103 h -2.26278 V 86.406696 c 0,-0.588386 -0.43246,-1.065434 -1.02051,-1.065434 h -9.18424 c -0.58806,0 -1.10917,0.477048 -1.10917,1.065434 v 10.121622 h -2.12968 V 83.077215 h 15.70638 z"
       id="path1617" />
    <g
       transform="matrix(0.13229166,0,0,0.13229166,295.50963,64.944164)"
       id="g1625">
</g>
    <g
       transform="matrix(0.13229166,0,0,0.13229166,295.50963,64.944164)"
       id="g1627">
</g>
    <g
       transform="matrix(0.13229166,0,0,0.13229166,295.50963,64.944164)"
       id="g1629">
</g>
    <g
       transform="matrix(0.13229166,0,0,0.13229166,295.50963,64.944164)"
       id="g1631">
</g>
    <g
       transform="matrix(0.13229166,0,0,0.13229166,295.50963,64.944164)"
       id="g1633">
</g>
    <g
       transform="matrix(0.13229166,0,0,0.13229166,295.50963,64.944164)"
       id="g1635">
</g>
    <g
       transform="matrix(0.13229166,0,0,0.13229166,295.50963,64.944164)"
       id="g1637">
</g>
    <g
       transform="matrix(0.13229166,0,0,0.13229166,295.50963,64.944164)"
       id="g1639">
</g>
    <g
       transform="matrix(0.13229166,0,0,0.13229166,295.50963,64.944164)"
       id="g1641">
</g>
    <g
       transform="matrix(0.13229166,0,0,0.13229166,295.50963,64.944164)"
       id="g1643">
</g>
    <g
       transform="matrix(0.13229166,0,0,0.13229166,295.50963,64.944164)"
       id="g1645">
</g>
    <g
       transform="matrix(0.13229166,0,0,0.13229166,295.50963,64.944164)"
       id="g1647">
</g>
    <g
       transform="matrix(0.13229166,0,0,0.13229166,295.50963,64.944164)"
       id="g1649">
</g>
    <g
       transform="matrix(0.13229166,0,0,0.13229166,295.50963,64.944164)"
       id="g1651">
</g>
    <g
       transform="matrix(0.13229166,0,0,0.13229166,295.50963,64.944164)"
       id="g1653">
</g>
    <path
       id="path1683"
       style="stroke-width:0.0900019;stroke-miterlimit:4;stroke-dasharray:none;fill:#ffcc00;fill-opacity:1"
       d="M 12.069235,6.3279864 C 11.140596,6.3417854 10.229246,6.7491132 9.5909281,7.4221177 9.2374728,7.7902373 8.9708236,8.2378856 8.8046158,8.7198408 6.8225963,14.006359 4.8389911,19.292301 2.8579625,24.579179 2.5800199,25.3321 2.5742511,26.181413 2.8463048,26.936864 c 0.3286915,0.933381 1.0648788,1.717367 1.9844614,2.087622 0.4606978,0.190883 0.9625681,0.269574 1.4598243,0.257279 3.6763233,0 7.3526465,0 11.0289705,0 -0.385663,3.859293 -0.77166,7.718553 -1.157627,11.577815 -1.086203,9.29e-4 -2.172453,-0.0019 -3.258625,0.0014 -0.368015,0.0135 -0.704187,0.294535 -0.783679,0.653896 -0.08188,0.327942 0.05527,0.695334 0.332597,0.88874 0.170438,0.127261 0.387805,0.17182 0.597184,0.159775 6.332819,-3.97e-4 12.665657,7.94e-4 18.998463,-5.56e-4 0.365331,-0.0013 0.707849,-0.267496 0.801772,-0.620119 0.09725,-0.32974 -0.0307,-0.709533 -0.308586,-0.91229 -0.171074,-0.132987 -0.392229,-0.183184 -0.605856,-0.170814 -1.039637,0 -2.079274,0 -3.11891,0 -0.386104,-3.859259 -0.771884,-7.718551 -1.157936,-11.577815 3.73458,-4.76e-4 7.469176,9.68e-4 11.203747,-7.14e-4 0.802411,-0.0039 1.599513,-0.296703 2.21109,-0.816698 0.736604,-0.616958 1.206367,-1.543703 1.254816,-2.504607 0.03018,-0.523917 -0.06929,-1.050567 -0.265391,-1.536079 C 40.077313,19.130677 38.093634,13.837075 36.10731,8.5444838 35.760714,7.6601754 35.034849,6.9373337 34.154398,6.5839719 33.696873,6.3957108 33.199293,6.3137916 32.705528,6.3273663 25.829484,6.3277235 18.953433,6.326644 12.077392,6.3279061 l -0.0079,7.72e-5 z m 0.06372,1.7031854 c 1.721066,-10e-8 3.442132,0 5.163197,0 -0.150462,1.2029309 -0.300719,2.4058882 -0.450989,3.6088432 -2.438658,0 -4.877317,0 -7.3159758,0 0.3151697,-0.836884 0.6258858,-1.6755237 0.9436818,-2.5113693 0.231523,-0.5529655 0.756229,-0.9688837 1.346957,-1.0697006 0.103249,-0.018792 0.208219,-0.027498 0.313129,-0.027773 z m 7.300629,0 c 2.17717,0 4.354341,-10e-8 6.531512,0 0.150273,1.2029611 0.300689,2.4059042 0.451144,3.6088432 -2.618082,0 -5.236166,0 -7.854248,0 0.150454,-1.202939 0.300872,-2.405882 0.451143,-3.6088432 0.14015,0 0.280299,0 0.420449,0 z m 8.788008,0 c 1.561739,8.263e-4 3.123516,-0.00165 4.685232,0.00124 0.607974,0.016603 1.192633,0.3666606 1.496244,0.8933477 0.133798,0.2280997 0.203122,0.4857785 0.30173,0.7295971 0.248048,0.6615654 0.495991,1.3231694 0.744246,1.9846574 -2.438606,0 -4.877214,0 -7.31582,0 -0.150273,-1.202961 -0.30069,-2.4059039 -0.451144,-3.6088423 0.179837,0 0.359674,-10e-8 0.539512,10e-8 z M 9.2203608,13.34382 c 2.4705952,0 4.9411912,0 7.4117862,0 -0.26115,2.08838 -0.522259,4.176764 -0.783224,6.265167 -3.102713,0 -6.2054273,0 -9.3081413,0 0.783235,-2.088365 1.5664412,-4.176741 2.3495152,-6.265167 0.1100213,0 0.2200426,0 0.3300639,0 z m 9.5490622,0 c 2.619943,0 5.239886,0 7.859829,0 0.260941,2.088399 0.521937,4.176792 0.783069,6.265167 -3.282138,0 -6.564276,0 -9.846414,0 0.261132,-2.088375 0.522128,-4.176768 0.783068,-6.265167 0.140149,0 0.280299,0 0.420448,0 z m 10.116326,0 c 2.400727,0 4.801454,0 7.202182,0 0.783074,2.088426 1.56628,4.176802 2.349515,6.265167 -3.102714,0 -6.205428,0 -9.308141,0 -0.260941,-2.088399 -0.521937,-4.176791 -0.783069,-6.265167 0.179838,0 0.359675,0 0.539513,0 z M 6.2319573,21.312793 c 3.1347023,0 6.2694047,0 9.4041067,0 -0.26115,2.088379 -0.522259,4.176764 -0.783223,6.265166 -2.918172,-5.55e-4 -5.8363597,0.001 -8.7545216,-7.93e-4 C 5.575114,27.564836 5.0658966,27.30829 4.7430267,26.896728 4.3937702,26.462253 4.2635457,25.861136 4.4090185,25.322148 c 0.069109,-0.242047 0.1715833,-0.473032 0.2556346,-0.710087 0.4123986,-1.099768 0.8249351,-2.199484 1.2372403,-3.299287 0.1100213,0 0.2200426,0 0.3300639,0 z m 11.5413827,0 c 3.283999,0 6.567997,0 9.851995,0 0.260965,2.088402 0.522073,4.176787 0.783224,6.265166 -3.946245,0 -7.89249,0 -11.838735,0 0.261132,-2.088375 0.522128,-4.176767 0.783069,-6.265166 0.140148,0 0.280298,0 0.420447,0 z m 12.108492,0 c 3.064833,0 6.129668,0 9.194502,0 0.485179,1.296403 0.973602,2.591629 1.456995,3.888676 0.179085,0.518669 0.09925,1.11652 -0.208,1.570832 -0.30215,0.462067 -0.827084,0.769004 -1.378757,0.801473 -0.340289,0.0096 -0.680995,0.0015 -1.021446,0.0042 -2.599913,0 -5.199826,0 -7.799739,0 -0.26094,-2.088399 -0.521936,-4.176791 -0.783068,-6.265166 0.179838,0 0.359675,0 0.539513,0 z m -10.418639,7.968972 c 2.160943,0 4.321888,0 6.482832,0 0.386104,3.859259 0.771884,7.718551 1.157937,11.577815 -3.076565,0 -6.153131,0 -9.229696,0 0.386053,-3.859264 0.771833,-7.718556 1.157937,-11.577815 0.143663,0 0.287326,0 0.43099,0 z" />
    <g
       transform="matrix(0.07937656,0,0,0.07937656,2.1687146,4.1249768)"
       id="g1689">
</g>
    <g
       transform="matrix(0.07937656,0,0,0.07937656,2.1687146,4.1249768)"
       id="g1691">
</g>
    <g
       transform="matrix(0.07937656,0,0,0.07937656,2.1687146,4.1249768)"
       id="g1693">
</g>
    <g
       transform="matrix(0.07937656,0,0,0.07937656,2.1687146,4.1249768)"
       id="g1695">
</g>
    <g
       transform="matrix(0.07937656,0,0,0.07937656,2.1687146,4.1249768)"
       id="g1697">
</g>
    <g
       transform="matrix(0.07937656,0,0,0.07937656,2.1687146,4.1249768)"
       id="g1699">
</g>
    <g
       transform="matrix(0.07937656,0,0,0.07937656,2.1687146,4.1249768)"
       id="g1701">
</g>
    <g
       transform="matrix(0.07937656,0,0,0.07937656,2.1687146,4.1249768)"
       id="g1703">
</g>
    <g
       transform="matrix(0.07937656,0,0,0.07937656,2.1687146,4.1249768)"
       id="g1705">
</g>
    <g
       transform="matrix(0.07937656,0,0,0.07937656,2.1687146,4.1249768)"
       id="g1707">
</g>
    <g
       transform="matrix(0.07937656,0,0,0.07937656,2.1687146,4.1249768)"
       id="g1709">
</g>
    <g
       transform="matrix(0.07937656,0,0,0.07937656,2.1687146,4.1249768)"
       id="g1711">
</g>
    <g
       transform="matrix(0.07937656,0,0,0.07937656,2.1687146,4.1249768)"
       id="g1713">
</g>
    <g
       transform="matrix(0.07937656,0,0,0.07937656,2.1687146,4.1249768)"
       id="g1715">
</g>
    <g
       transform="matrix(0.07937656,0,0,0.07937656,2.1687146,4.1249768)"
       id="g1717">
</g>
    <path
       style="stroke-width:0.085718;fill:#715ca6;fill-opacity:1"
       id="path1746"
       d="m 327.83454,16.274907 c 0.35504,0 0.64288,-0.287754 0.64288,-0.642884 v -2.742976 c 0,-0.02383 -0.002,-0.04731 -0.004,-0.07046 -3.4e-4,-0.0032 -9.7e-4,-0.0063 -0.002,-0.0095 -0.003,-0.02683 -0.009,-0.05306 -0.0151,-0.07878 -9.7e-4,-0.0052 -0.003,-0.01037 -0.004,-0.01551 -0.008,-0.02846 -0.0177,-0.05624 -0.0294,-0.08289 -9.7e-4,-0.0025 -0.003,-0.005 -0.004,-0.0075 -0.0113,-0.02495 -0.0242,-0.04886 -0.0384,-0.07192 -0.003,-0.0044 -0.005,-0.0088 -0.008,-0.01311 -0.0156,-0.02408 -0.0329,-0.04706 -0.0516,-0.06874 -0.004,-0.0045 -0.008,-0.0086 -0.0119,-0.01303 -0.0192,-0.02126 -0.0396,-0.0414 -0.0615,-0.05992 -9.4e-4,-7.71e-4 -0.002,-0.0017 -0.003,-0.0025 l -0.002,-0.0018 c -2.6e-4,-1.72e-4 -5.2e-4,-4.29e-4 -6.9e-4,-6.01e-4 L 320.07359,5.58592 318.06136,2.9029465 c -0.121,-0.1618805 -0.31146,-0.2571132 -0.51385,-0.2571132 h -2.74297 c -0.20238,0 -0.39284,0.095233 -0.5143,0.257154 l -2.01215,2.6828878 -8.16825,6.8068669 c -2.5e-4,1.71e-4 -5e-4,4.28e-4 -6.8e-4,5.99e-4 l -0.002,0.0018 c -9.4e-4,7.71e-4 -0.002,0.0018 -0.003,0.0025 -0.022,0.01852 -0.0423,0.03874 -0.0615,0.05992 -0.004,0.0044 -0.008,0.0086 -0.0119,0.01303 -0.0187,0.02168 -0.036,0.04466 -0.0516,0.06874 -0.003,0.0043 -0.005,0.0087 -0.008,0.01311 -0.0142,0.02305 -0.0272,0.04697 -0.0384,0.07192 -9.7e-4,0.0025 -0.003,0.0049 -0.004,0.0075 -0.0117,0.02675 -0.0213,0.05443 -0.0294,0.08289 -0.002,0.0052 -0.003,0.01028 -0.004,0.01551 -0.007,0.02572 -0.0118,0.05195 -0.0151,0.07877 -4.3e-4,0.0032 -9.8e-4,0.0063 -9.8e-4,0.0095 -0.003,0.02323 -0.004,0.04672 -0.004,0.07054 v 2.742976 c 0,0.35513 0.28784,0.642884 0.64288,0.642884 0.35505,0 0.64289,-0.287754 0.64289,-0.642884 v -2.100092 h 6.94316 v 5.913428 l -7.99466,6.662175 c -2.6e-4,1.72e-4 -5.2e-4,4.28e-4 -6.9e-4,6e-4 l -0.002,0.0018 c -9.4e-4,7.72e-4 -0.002,0.0018 -0.003,0.0025 -0.022,0.01852 -0.0423,0.03874 -0.0615,0.05992 -0.004,0.0044 -0.008,0.0086 -0.0119,0.01303 -0.0187,0.02168 -0.036,0.04466 -0.0516,0.06874 -0.003,0.0043 -0.005,0.0087 -0.008,0.01311 -0.0142,0.02305 -0.0272,0.04697 -0.0384,0.07192 -9.7e-4,0.0025 -0.003,0.0049 -0.004,0.0075 -0.0117,0.02675 -0.0213,0.05443 -0.0294,0.08289 -9.7e-4,0.0052 -0.003,0.01028 -0.004,0.01551 -0.007,0.02572 -0.0118,0.05195 -0.0151,0.07877 -4.4e-4,0.0032 -9.7e-4,0.0063 -0.002,0.0095 -0.003,0.02323 -0.004,0.04672 -0.004,0.07054 v 2.742976 c 0,0.35513 0.28784,0.642885 0.64289,0.642885 0.35504,0 0.64288,-0.287755 0.64288,-0.642885 v -2.100091 h 6.66818 l -5.01836,13.800599 h -0.92122 c -0.35504,0 -0.64288,0.287755 -0.64288,0.642885 0,0.355129 0.28784,0.642884 0.64288,0.642884 h 3.42873 c 0.35504,0 0.64288,-0.287755 0.64288,-0.642884 0,-0.35513 -0.28784,-0.642885 -0.64288,-0.642885 h -0.70058 l 7.55801,-9.237573 7.55802,9.237573 h -0.0149 c -0.35505,0 -0.64288,0.287755 -0.64288,0.642885 0,0.355129 0.28783,0.642884 0.64288,0.642884 h 3.42872 c 0.35504,0 0.64288,-0.287755 0.64288,-0.642884 0,-0.35513 -0.28784,-0.642885 -0.64288,-0.642885 h -1.60696 l -5.01835,-13.800599 h 6.66817 v 2.100091 c 0,0.35513 0.28784,0.642885 0.64289,0.642885 0.35504,0 0.64287,-0.287755 0.64287,-0.642885 v -2.742976 c 0,-0.02383 -0.002,-0.04731 -0.004,-0.07045 -3.4e-4,-0.0032 -9.8e-4,-0.0063 -0.002,-0.0095 -0.003,-0.02683 -0.009,-0.05306 -0.0151,-0.07877 -9.7e-4,-0.0052 -0.003,-0.01037 -0.004,-0.01551 -0.008,-0.02846 -0.0177,-0.05623 -0.0294,-0.08289 -9.7e-4,-0.0025 -0.003,-0.005 -0.004,-0.0075 -0.0113,-0.02494 -0.0242,-0.04886 -0.0384,-0.07192 -0.003,-0.0044 -0.005,-0.0088 -0.008,-0.01311 -0.0156,-0.02408 -0.0329,-0.04706 -0.0516,-0.06874 -0.004,-0.0045 -0.008,-0.0086 -0.0118,-0.01302 -0.0192,-0.02126 -0.0397,-0.0414 -0.0615,-0.05992 -9.4e-4,-7.71e-4 -0.002,-0.0017 -0.003,-0.0025 l -0.002,-0.0018 c -2.7e-4,-1.71e-4 -5.2e-4,-4.29e-4 -6.9e-4,-6e-4 l -7.99467,-6.662261 v -5.913428 h 6.94316 v 2.100091 c 0,0.355131 0.28785,0.642885 0.64289,0.642885 z M 315.26767,9.4603259 313.39105,11.336951 V 7.5837022 Z m -0.96741,-2.7858345 h 3.75325 l -1.87662,1.8766243 z m 0,5.5716706 1.87663,-1.876624 1.87662,1.876624 z m 3.75325,1.285769 -1.87662,1.876625 -1.87663,-1.876625 z m -2.78584,2.785836 -1.87662,1.876624 v -3.753248 z m -0.96741,2.785835 1.87663,-1.876624 1.87662,1.876624 z m 3.75325,1.285769 -1.87662,1.876625 -1.87663,-1.876625 z m -2.78584,2.785836 -1.87662,1.876624 v -3.753248 z m 0.90922,0.909211 1.87662,1.876624 h -3.75325 z m 2.07206,3.162394 -2.07206,2.532538 -2.07206,-2.532538 z m -1.16285,-4.071605 1.87662,-1.876624 v 3.753248 z m 0,-6.85744 1.87662,-1.876624 v 3.753248 z m 0,-6.8574411 1.87662,-1.8766237 v 3.7532488 z m -1.95926,-5.5288106 h 2.10009 l 1.0929,1.4572061 h -4.28589 z m -3.02155,3.4726934 v 4.8419533 h -5.8104 z m 0,13.7148803 v 4.841953 h -5.8104 z m -2.94725,17.238834 3.80811,-10.47234 2.38004,2.909011 z m 7.84946,-7.563329 2.38004,-2.909011 3.80811,10.47234 z m 3.24099,-4.833552 v -4.841953 l 5.8104,4.841953 z m 0,-13.71488 V 7.4042087 l 5.8104,4.8419533 z" />
    <g
       transform="matrix(0.08819444,0,0,0.08819444,299.75498,3.4271214)"
       id="g1748">
</g>
    <g
       transform="matrix(0.08819444,0,0,0.08819444,299.75498,3.4271214)"
       id="g1750">
</g>
    <g
       transform="matrix(0.08819444,0,0,0.08819444,299.75498,3.4271214)"
       id="g1752">
</g>
    <g
       transform="matrix(0.08819444,0,0,0.08819444,299.75498,3.4271214)"
       id="g1754">
</g>
    <g
       transform="matrix(0.08819444,0,0,0.08819444,299.75498,3.4271214)"
       id="g1756">
</g>
    <g
       transform="matrix(0.08819444,0,0,0.08819444,299.75498,3.4271214)"
       id="g1758">
</g>
    <g
       transform="matrix(0.08819444,0,0,0.08819444,299.75498,3.4271214)"
       id="g1760">
</g>
    <g
       transform="matrix(0.08819444,0,0,0.08819444,299.75498,3.4271214)"
       id="g1762">
</g>
    <g
       transform="matrix(0.08819444,0,0,0.08819444,299.75498,3.4271214)"
       id="g1764">
</g>
    <g
       transform="matrix(0.08819444,0,0,0.08819444,299.75498,3.4271214)"
       id="g1766">
</g>
    <g
       transform="matrix(0.08819444,0,0,0.08819444,299.75498,3.4271214)"
       id="g1768">
</g>
    <g
       transform="matrix(0.08819444,0,0,0.08819444,299.75498,3.4271214)"
       id="g1770">
</g>
    <g
       transform="matrix(0.08819444,0,0,0.08819444,299.75498,3.4271214)"
       id="g1772">
</g>
    <g
       transform="matrix(0.08819444,0,0,0.08819444,299.75498,3.4271214)"
       id="g1774">
</g>
    <g
       transform="matrix(0.08819444,0,0,0.08819444,299.75498,3.4271214)"
       id="g1776">
</g>
  </g>
</svg>
